<svg xmlns="http://www.w3.org/2000/svg" viewBox="0 0 1200 700" width="1200" height="700">
  <defs>
    <linearGradient id="bgGrad" x1="0%" y1="0%" x2="0%" y2="100%">
      <stop offset="0%" stop-color="#060608"/>
      <stop offset="50%" stop-color="#0c0e16"/>
      <stop offset="100%" stop-color="#060608"/>
    </linearGradient>
    <linearGradient id="fireGrad" x1="0%" y1="100%" x2="0%" y2="0%">
      <stop offset="0%" stop-color="#c0392b"/>
      <stop offset="40%" stop-color="#e74c3c"/>
      <stop offset="100%" stop-color="#f39c12"/>
    </linearGradient>
    <linearGradient id="bottomBar" x1="0%" y1="0%" x2="100%" y2="0%">
      <stop offset="0%" stop-color="#e74c3c"/>
      <stop offset="25%" stop-color="#3498db"/>
      <stop offset="50%" stop-color="#2ecc71"/>
      <stop offset="75%" stop-color="#f39c12"/>
      <stop offset="100%" stop-color="#e74c3c"/>
    </linearGradient>
    <linearGradient id="contextBridge" x1="0%" y1="0%" x2="100%" y2="0%">
      <stop offset="0%" stop-color="rgba(243,156,18,0)"/>
      <stop offset="30%" stop-color="rgba(243,156,18,0.5)"/>
      <stop offset="50%" stop-color="rgba(243,156,18,0.7)"/>
      <stop offset="70%" stop-color="rgba(243,156,18,0.5)"/>
      <stop offset="100%" stop-color="rgba(243,156,18,0)"/>
    </linearGradient>
    <linearGradient id="arrowGrad" x1="0%" y1="0%" x2="0%" y2="100%">
      <stop offset="0%" stop-color="#e74c3c" stop-opacity="0.7"/>
      <stop offset="100%" stop-color="#f39c12" stop-opacity="0.4"/>
    </linearGradient>
    <pattern id="grid" width="60" height="60" patternUnits="userSpaceOnUse">
      <path d="M 60 0 L 0 0 0 60" fill="none" stroke="rgba(255,255,255,0.015)" stroke-width="0.5"/>
    </pattern>
    <filter id="cardShadow">
      <feDropShadow dx="0" dy="2" stdDeviation="4" flood-color="#000" flood-opacity="0.35"/>
    </filter>
    <filter id="glow">
      <feGaussianBlur stdDeviation="2" result="blur"/>
      <feMerge><feMergeNode in="blur"/><feMergeNode in="SourceGraphic"/></feMerge>
    </filter>
    <filter id="softGlow">
      <feGaussianBlur stdDeviation="4" result="blur"/>
      <feMerge><feMergeNode in="blur"/><feMergeNode in="SourceGraphic"/></feMerge>
    </filter>
  </defs>

  <!-- Background -->
  <rect width="1200" height="700" fill="url(#bgGrad)"/>
  <rect width="1200" height="700" fill="url(#grid)"/>

  <!-- Header -->
  <text x="600" y="32" text-anchor="middle" font-family="'Courier New', monospace" font-size="11" fill="#e74c3c" letter-spacing="4" font-weight="700">// ARCHITECTURE — "PALMS ARE SWEATY, CODE IS READY"</text>
  <text x="600" y="62" text-anchor="middle" font-family="'Arial Black', 'Helvetica Neue', sans-serif" font-size="32" font-weight="900" fill="#ffffff" letter-spacing="-1">Two-Wave Parallel Orchestration</text>

  <!-- ============ USER INPUT ============ -->
  <g transform="translate(600, 88)">
    <rect x="-300" y="0" width="600" height="42" rx="12" fill="rgba(255,255,255,0.05)" stroke="rgba(255,255,255,0.12)" stroke-width="0.5"/>
    <!-- Chat bubble icon (SVG) -->
    <g transform="translate(-276, 12)" fill="none" stroke="rgba(255,255,255,0.5)" stroke-width="1.5" stroke-linecap="round" stroke-linejoin="round">
      <path d="M0,0 L14,0 C15,0 16,1 16,2 L16,10 C16,11 15,12 14,12 L4,12 L0,16 L0,2 C0,1 1,0 2,0"/>
    </g>
    <text x="-248" y="26" font-family="Arial, sans-serif" font-size="13" fill="rgba(255,255,255,0.6)" font-style="italic">"Write a LinkedIn post about our AI Collaboration Suite v3.0 launch"</text>
  </g>

  <!-- Arrow: Input → Orchestrator -->
  <g transform="translate(600, 134)">
    <line x1="0" y1="0" x2="0" y2="16" stroke="url(#arrowGrad)" stroke-width="2"/>
    <polygon points="-5,16 5,16 0,23" fill="#e74c3c" opacity="0.6"/>
  </g>

  <!-- ============ ORCHESTRATOR ============ -->
  <g transform="translate(600, 160)">
    <rect x="-220" y="0" width="440" height="50" rx="12" fill="rgba(231,76,60,0.08)" stroke="rgba(231,76,60,0.3)" stroke-width="1"/>
    <!-- Crosshair icon -->
    <g transform="translate(-190, 25)" fill="none" stroke="#e74c3c" stroke-width="1.4" stroke-linecap="round" opacity="0.7">
      <circle cx="0" cy="0" r="8"/>
      <circle cx="0" cy="0" r="3"/>
      <line x1="0" y1="-11" x2="0" y2="-8"/>
      <line x1="0" y1="8" x2="0" y2="11"/>
      <line x1="-11" y1="0" x2="-8" y2="0"/>
      <line x1="8" y1="0" x2="11" y2="0"/>
    </g>
    <text x="-160" y="22" font-family="Arial, sans-serif" font-size="17" font-weight="700" fill="#ffffff">Orchestrator</text>
    <text x="-160" y="38" font-family="Arial, sans-serif" font-size="11" fill="rgba(255,255,255,0.45)">intent: content_creation  |  platforms: [linkedin]</text>
    <rect x="120" y="12" width="90" height="18" rx="4" fill="rgba(231,76,60,0.12)" stroke="rgba(231,76,60,0.25)" stroke-width="0.5"/>
    <text x="165" y="25" text-anchor="middle" font-family="'Courier New', monospace" font-size="9" fill="#e74c3c" letter-spacing="1">DECOMPOSITION</text>
  </g>

  <!-- Arrow: Orchestrator → Wave 1 -->
  <g transform="translate(600, 214)">
    <line x1="0" y1="0" x2="0" y2="16" stroke="url(#arrowGrad)" stroke-width="2"/>
    <polygon points="-5,16 5,16 0,23" fill="#e74c3c" opacity="0.6"/>
  </g>

  <!-- ============ WAVE 1 ============ -->
  <g transform="translate(0, 240)">
    <!-- Wave 1 side label -->
    <g transform="translate(22, 0)">
      <rect x="0" y="0" width="32" height="140" rx="8" fill="rgba(52,152,219,0.08)" stroke="rgba(52,152,219,0.2)" stroke-width="0.5"/>
      <circle cx="16" cy="16" r="4" fill="#3498db" opacity="0.5"/>
      <text x="16" y="82" text-anchor="middle" font-family="'Courier New', monospace" font-size="10" fill="#3498db" letter-spacing="2" transform="rotate(-90,16,82)">WAVE 1</text>
    </g>

    <!-- Agent boxes (4 in parallel, color-coded) -->
    <g transform="translate(68, 0)">
      <!-- Researcher -->
      <g filter="url(#cardShadow)">
        <rect x="0" y="0" width="258" height="140" rx="10" fill="rgba(231,76,60,0.04)" stroke="rgba(231,76,60,0.15)" stroke-width="0.5"/>
        <rect width="258" height="3" rx="2" fill="#e74c3c"/>
        <!-- Parallel badge -->
        <rect x="198" y="6" width="52" height="14" rx="3" fill="rgba(52,152,219,0.1)" stroke="rgba(52,152,219,0.2)" stroke-width="0.5"/>
        <text x="224" y="16" text-anchor="middle" font-family="'Courier New', monospace" font-size="7" fill="#3498db" letter-spacing="0.5">PARALLEL</text>
        <text x="16" y="30" font-family="Arial, sans-serif" font-size="15" font-weight="700" fill="#ffffff">Researcher</text>
        <rect x="16" y="38" width="52" height="16" rx="3" fill="rgba(231,76,60,0.1)" stroke="rgba(231,76,60,0.2)" stroke-width="0.5"/>
        <text x="42" y="50" text-anchor="middle" font-family="'Courier New', monospace" font-size="8" fill="#e74c3c" letter-spacing="1">REACT</text>
        <text x="16" y="72" font-family="Arial, sans-serif" font-size="11" fill="rgba(255,255,255,0.5)">
          <tspan x="16">Trends, hashtags, competitors</tspan>
          <tspan x="16" dy="15">via DuckDuckGo live search</tspan>
        </text>
        <!-- Tools -->
        <g transform="translate(16, 110)">
          <rect width="4" height="4" rx="1" fill="#f39c12" opacity="0.6"/>
          <text x="10" y="4" font-family="'Courier New', monospace" font-size="9" fill="rgba(255,255,255,0.3)">search_trends, search_web</text>
        </g>
      </g>

      <!-- Strategist -->
      <g transform="translate(272, 0)" filter="url(#cardShadow)">
        <rect x="0" y="0" width="258" height="140" rx="10" fill="rgba(52,152,219,0.04)" stroke="rgba(52,152,219,0.15)" stroke-width="0.5"/>
        <rect width="258" height="3" rx="2" fill="#3498db"/>
        <rect x="198" y="6" width="52" height="14" rx="3" fill="rgba(52,152,219,0.1)" stroke="rgba(52,152,219,0.2)" stroke-width="0.5"/>
        <text x="224" y="16" text-anchor="middle" font-family="'Courier New', monospace" font-size="7" fill="#3498db" letter-spacing="0.5">PARALLEL</text>
        <text x="16" y="30" font-family="Arial, sans-serif" font-size="15" font-weight="700" fill="#ffffff">Strategist</text>
        <rect x="16" y="38" width="36" height="16" rx="3" fill="rgba(52,152,219,0.1)" stroke="rgba(52,152,219,0.2)" stroke-width="0.5"/>
        <text x="34" y="50" text-anchor="middle" font-family="'Courier New', monospace" font-size="8" fill="#3498db" letter-spacing="1">COT</text>
        <text x="16" y="72" font-family="Arial, sans-serif" font-size="11" fill="rgba(255,255,255,0.5)">
          <tspan x="16">Audience targeting, messaging</tspan>
          <tspan x="16" dy="15">framework, tone calibration</tspan>
        </text>
        <g transform="translate(16, 110)">
          <rect width="4" height="4" rx="1" fill="#f39c12" opacity="0.6"/>
          <text x="10" y="4" font-family="'Courier New', monospace" font-size="9" fill="rgba(255,255,255,0.3)">chain-of-thought reasoning</text>
        </g>
      </g>

      <!-- Memory -->
      <g transform="translate(544, 0)" filter="url(#cardShadow)">
        <rect x="0" y="0" width="258" height="140" rx="10" fill="rgba(46,204,113,0.04)" stroke="rgba(46,204,113,0.15)" stroke-width="0.5"/>
        <rect width="258" height="3" rx="2" fill="#2ecc71"/>
        <rect x="198" y="6" width="52" height="14" rx="3" fill="rgba(52,152,219,0.1)" stroke="rgba(52,152,219,0.2)" stroke-width="0.5"/>
        <text x="224" y="16" text-anchor="middle" font-family="'Courier New', monospace" font-size="7" fill="#3498db" letter-spacing="0.5">PARALLEL</text>
        <text x="16" y="30" font-family="Arial, sans-serif" font-size="15" font-weight="700" fill="#ffffff">Memory</text>
        <rect x="16" y="38" width="36" height="16" rx="3" fill="rgba(46,204,113,0.1)" stroke="rgba(46,204,113,0.2)" stroke-width="0.5"/>
        <text x="34" y="50" text-anchor="middle" font-family="'Courier New', monospace" font-size="8" fill="#2ecc71" letter-spacing="1">RAG</text>
        <text x="16" y="72" font-family="Arial, sans-serif" font-size="11" fill="rgba(255,255,255,0.5)">
          <tspan x="16">Brand guidelines, past posts,</tspan>
          <tspan x="16" dy="15">content calendar retrieval</tspan>
        </text>
        <g transform="translate(16, 110)">
          <rect width="4" height="4" rx="1" fill="#f39c12" opacity="0.6"/>
          <text x="10" y="4" font-family="'Courier New', monospace" font-size="9" fill="rgba(255,255,255,0.3)">get_brand_guidelines, get_posts</text>
        </g>
      </g>

      <!-- Analyst -->
      <g transform="translate(816, 0)" filter="url(#cardShadow)">
        <rect x="0" y="0" width="258" height="140" rx="10" fill="rgba(243,156,18,0.04)" stroke="rgba(243,156,18,0.15)" stroke-width="0.5"/>
        <rect width="258" height="3" rx="2" fill="#f39c12"/>
        <rect x="198" y="6" width="52" height="14" rx="3" fill="rgba(52,152,219,0.1)" stroke="rgba(52,152,219,0.2)" stroke-width="0.5"/>
        <text x="224" y="16" text-anchor="middle" font-family="'Courier New', monospace" font-size="7" fill="#3498db" letter-spacing="0.5">PARALLEL</text>
        <text x="16" y="30" font-family="Arial, sans-serif" font-size="15" font-weight="700" fill="#ffffff">Analyst</text>
        <rect x="16" y="38" width="82" height="16" rx="3" fill="rgba(243,156,18,0.1)" stroke="rgba(243,156,18,0.2)" stroke-width="0.5"/>
        <text x="57" y="50" text-anchor="middle" font-family="'Courier New', monospace" font-size="8" fill="#f39c12" letter-spacing="1">DATA-DRIVEN</text>
        <text x="16" y="72" font-family="Arial, sans-serif" font-size="11" fill="rgba(255,255,255,0.5)">
          <tspan x="16">Engagement benchmarks,</tspan>
          <tspan x="16" dy="15">optimal posting times</tspan>
        </text>
        <g transform="translate(16, 110)">
          <rect width="4" height="4" rx="1" fill="#f39c12" opacity="0.6"/>
          <text x="10" y="4" font-family="'Courier New', monospace" font-size="9" fill="rgba(255,255,255,0.3)">calculate_engagement</text>
        </g>
      </g>
    </g>
  </g>

  <!-- ============ CONTEXT BRIDGE ============ -->
  <g transform="translate(0, 396)">
    <!-- Bridge line -->
    <line x1="68" y1="12" x2="1132" y2="12" stroke="url(#contextBridge)" stroke-width="1.5"/>
    <!-- Data flow dots along the bridge -->
    <circle cx="200" cy="12" r="2" fill="#f39c12" opacity="0.4"/>
    <circle cx="400" cy="12" r="2" fill="#f39c12" opacity="0.5"/>
    <circle cx="600" cy="12" r="2.5" fill="#f39c12" opacity="0.6"/>
    <circle cx="800" cy="12" r="2" fill="#f39c12" opacity="0.5"/>
    <circle cx="1000" cy="12" r="2" fill="#f39c12" opacity="0.4"/>
    <!-- Label -->
    <text x="600" y="16" text-anchor="middle" font-family="'Courier New', monospace" font-size="10" fill="#f39c12" letter-spacing="1">WAVE 1 CONTEXT PASSED TO WAVE 2 VIA AgentContext</text>
    <!-- Arrows pointing down -->
    <g transform="translate(600, 22)">
      <polygon points="-4,0 4,0 0,6" fill="#f39c12" opacity="0.5"/>
    </g>
  </g>

  <!-- ============ WAVE 2 ============ -->
  <g transform="translate(0, 428)">
    <!-- Wave 2 side label -->
    <g transform="translate(22, 0)">
      <rect x="0" y="0" width="32" height="140" rx="8" fill="rgba(46,204,113,0.08)" stroke="rgba(46,204,113,0.2)" stroke-width="0.5"/>
      <circle cx="16" cy="16" r="4" fill="#2ecc71" opacity="0.5"/>
      <text x="16" y="82" text-anchor="middle" font-family="'Courier New', monospace" font-size="10" fill="#2ecc71" letter-spacing="2" transform="rotate(-90,16,82)">WAVE 2</text>
    </g>

    <g transform="translate(68, 0)">
      <!-- Scribe -->
      <g filter="url(#cardShadow)">
        <rect x="0" y="0" width="537" height="140" rx="10" fill="rgba(155,89,182,0.04)" stroke="rgba(155,89,182,0.15)" stroke-width="0.5"/>
        <rect width="537" height="3" rx="2" fill="#9b59b6"/>
        <rect x="477" y="6" width="52" height="14" rx="3" fill="rgba(46,204,113,0.1)" stroke="rgba(46,204,113,0.2)" stroke-width="0.5"/>
        <text x="503" y="16" text-anchor="middle" font-family="'Courier New', monospace" font-size="7" fill="#2ecc71" letter-spacing="0.5">PARALLEL</text>
        <text x="16" y="30" font-family="Arial, sans-serif" font-size="15" font-weight="700" fill="#ffffff">Scribe</text>
        <rect x="16" y="38" width="112" height="16" rx="3" fill="rgba(155,89,182,0.1)" stroke="rgba(155,89,182,0.2)" stroke-width="0.5"/>
        <text x="72" y="50" text-anchor="middle" font-family="'Courier New', monospace" font-size="8" fill="#9b59b6" letter-spacing="1">TEMPLATE-GUIDED</text>
        <text x="16" y="72" font-family="Arial, sans-serif" font-size="11" fill="rgba(255,255,255,0.5)">
          <tspan x="16">Generates platform-specific content: hook → body → CTA → hashtags. Saves drafts via MCP Filesystem.</tspan>
        </text>
        <text x="16" y="98" font-family="Arial, sans-serif" font-size="11" fill="rgba(255,255,255,0.4)" font-style="italic">"You better never let it go — you only get one shot at the first draft."</text>
        <g transform="translate(16, 118)">
          <rect width="4" height="4" rx="1" fill="#f39c12" opacity="0.6"/>
          <text x="10" y="4" font-family="'Courier New', monospace" font-size="9" fill="rgba(255,255,255,0.3)">MCP: @modelcontextprotocol/server-filesystem</text>
        </g>
      </g>

      <!-- Advisor -->
      <g transform="translate(551, 0)" filter="url(#cardShadow)">
        <rect x="0" y="0" width="531" height="140" rx="10" fill="rgba(26,188,156,0.04)" stroke="rgba(26,188,156,0.15)" stroke-width="0.5"/>
        <rect width="531" height="3" rx="2" fill="#1abc9c"/>
        <rect x="471" y="6" width="52" height="14" rx="3" fill="rgba(46,204,113,0.1)" stroke="rgba(46,204,113,0.2)" stroke-width="0.5"/>
        <text x="497" y="16" text-anchor="middle" font-family="'Courier New', monospace" font-size="7" fill="#2ecc71" letter-spacing="0.5">PARALLEL</text>
        <text x="16" y="30" font-family="Arial, sans-serif" font-size="15" font-weight="700" fill="#ffffff">Advisor</text>
        <rect x="16" y="38" width="108" height="16" rx="3" fill="rgba(26,188,156,0.1)" stroke="rgba(26,188,156,0.2)" stroke-width="0.5"/>
        <text x="70" y="50" text-anchor="middle" font-family="'Courier New', monospace" font-size="8" fill="#1abc9c" letter-spacing="1">SELF-REFLECTION</text>
        <text x="16" y="72" font-family="Arial, sans-serif" font-size="11" fill="rgba(255,255,255,0.5)">
          <tspan x="16">Initial review → metacognitive reflection → revised compliance score (1-10).</tspan>
        </text>
        <text x="16" y="98" font-family="Arial, sans-serif" font-size="11" fill="rgba(255,255,255,0.4)" font-style="italic">The AI that reviews its own AI. No moment to lose yourself.</text>
        <g transform="translate(16, 118)">
          <rect width="4" height="4" rx="1" fill="#f39c12" opacity="0.6"/>
          <text x="10" y="4" font-family="'Courier New', monospace" font-size="9" fill="rgba(255,255,255,0.3)">review → reflect → revise</text>
        </g>
      </g>
    </g>
  </g>

  <!-- Arrow: Wave 2 → Output -->
  <g transform="translate(600, 572)">
    <line x1="0" y1="0" x2="0" y2="16" stroke="url(#arrowGrad)" stroke-width="2"/>
    <polygon points="-5,16 5,16 0,23" fill="#2ecc71" opacity="0.6"/>
  </g>

  <!-- ============ OUTPUT ============ -->
  <g transform="translate(600, 600)">
    <rect x="-360" y="0" width="720" height="52" rx="12" fill="rgba(46,204,113,0.06)" stroke="rgba(46,204,113,0.2)" stroke-width="0.5"/>

    <!-- Platform: LinkedIn -->
    <g transform="translate(-320, 14)">
      <rect width="20" height="20" rx="4" fill="rgba(52,152,219,0.2)" stroke="rgba(52,152,219,0.3)" stroke-width="0.5"/>
      <text x="10" y="15" text-anchor="middle" font-family="Arial, sans-serif" font-size="11" font-weight="700" fill="#3498db">in</text>
      <text x="28" y="15" font-family="'Courier New', monospace" font-size="9" fill="rgba(255,255,255,0.45)" letter-spacing="1">LinkedIn</text>
    </g>
    <!-- Divider -->
    <line x1="-230" y1="8" x2="-230" y2="44" stroke="rgba(255,255,255,0.08)" stroke-width="1"/>
    <!-- Platform: Twitter/X -->
    <g transform="translate(-210, 14)">
      <rect width="20" height="20" rx="4" fill="rgba(255,255,255,0.1)" stroke="rgba(255,255,255,0.15)" stroke-width="0.5"/>
      <text x="10" y="15" text-anchor="middle" font-family="Arial, sans-serif" font-size="12" font-weight="700" fill="rgba(255,255,255,0.6)">X</text>
      <text x="28" y="15" font-family="'Courier New', monospace" font-size="9" fill="rgba(255,255,255,0.45)" letter-spacing="1">Twitter/X</text>
    </g>
    <!-- Divider -->
    <line x1="-120" y1="8" x2="-120" y2="44" stroke="rgba(255,255,255,0.08)" stroke-width="1"/>
    <!-- Platform: Instagram -->
    <g transform="translate(-100, 14)">
      <rect width="20" height="20" rx="4" fill="rgba(155,89,182,0.2)" stroke="rgba(155,89,182,0.3)" stroke-width="0.5"/>
      <g transform="translate(10, 10)" fill="none" stroke="#9b59b6" stroke-width="1.2" stroke-linecap="round">
        <rect x="-6" y="-6" width="12" height="12" rx="3"/>
        <circle cx="0" cy="0" r="3"/>
        <circle cx="4" cy="-4" r="1" fill="#9b59b6"/>
      </g>
      <text x="28" y="15" font-family="'Courier New', monospace" font-size="9" fill="rgba(255,255,255,0.45)" letter-spacing="1">Instagram</text>
    </g>
    <!-- Divider -->
    <line x1="0" y1="8" x2="0" y2="44" stroke="rgba(255,255,255,0.08)" stroke-width="1"/>
    <!-- Result text -->
    <text x="20" y="18" font-family="Arial, sans-serif" font-size="14" font-weight="700" fill="#ffffff">Brand-Compliant, Data-Backed Content</text>
    <text x="20" y="36" font-family="Arial, sans-serif" font-size="11" fill="rgba(255,255,255,0.4)">Scored, traced, exportable to 4 formats</text>
  </g>

  <!-- Speed badge -->
  <g transform="translate(1132, 672)">
    <text x="0" y="0" text-anchor="end" font-family="'Courier New', monospace" font-size="18" font-weight="700" fill="#e74c3c" filter="url(#glow)">asyncio.gather()</text>
    <text x="0" y="16" text-anchor="end" font-family="Arial, sans-serif" font-size="10" fill="rgba(255,255,255,0.3)">Not sequential. Parallel. Like a real team.</text>
  </g>

  <!-- Corner brackets -->
  <g stroke="#e74c3c" stroke-opacity="0.3" stroke-width="1.5" fill="none">
    <path d="M 10,10 L 10,32 M 10,10 L 32,10"/>
    <path d="M 1190,10 L 1190,32 M 1190,10 L 1168,10"/>
    <path d="M 10,690 L 10,668 M 10,690 L 32,690"/>
    <path d="M 1190,690 L 1190,668 M 1190,690 L 1168,690"/>
  </g>

  <!-- Bottom bar -->
  <rect x="0" y="696" width="1200" height="4" fill="url(#bottomBar)"/>
</svg>
